<svg width="36" height="36" viewBox="0 0 36 36" fill="none" xmlns="http://www.w3.org/2000/svg"><path d="M36 3.82c0-1.02-.397-1.98-1.118-2.7-.72-.723-1.68-1.12-2.7-1.12-1.02 0-1.98.397-2.7 1.118l-1.576 1.576c-.882-.576-1.917-.887-2.986-.887-1.168 0-2.277.37-3.203 1.046l-.204-.204c-.597-.597-1.388-.925-2.23-.925-.844 0-1.636.328-2.232.925-.595.595-.923 1.388-.923 2.23 0 .493.125.962.337 1.39L1.237 21.5C.44 22.298 0 23.358 0 24.486s.44 2.19 1.237 2.988l7.29 7.29c.8.797 1.86 1.236 2.988 1.236 1.13 0 2.19-.44 2.988-1.237L29.73 19.536c.428.212.898.337 1.39.337.843 0 1.636-.33 2.232-.925.596-.596.924-1.388.924-2.23 0-.843-.328-1.635-.924-2.232l-.202-.202c1.328-1.826 1.394-4.3.156-6.19l1.576-1.576c.72-.72 1.118-1.68 1.118-2.7zM13.296 33.557c-.952.95-2.612.95-3.564 0l-7.29-7.29c-.474-.475-.737-1.11-.737-1.78 0-.674.262-1.307.738-1.783l15.1-15.1 10.853 10.852-15.1 15.1zm18.85-15.815c-.55.548-1.504.548-2.05 0L18.256 5.905c-.272-.274-.423-.637-.423-1.024s.15-.75.424-1.025c.274-.273.638-.424 1.025-.424.39 0 .752.15 1.026.425l.755.755 5.164 5.164 5.918 5.92c.565.564.565 1.483 0 2.05zm1.53-12.43l-2.103 2.102c-.32.32-.334.833-.032 1.17 1.126 1.263 1.244 3.093.385 4.475L22.94 4.076c1.353-.844 3.26-.698 4.475.385.338.302.85.288 1.17-.03l2.103-2.104c.798-.8 2.19-.8 2.988 0 .398.398.618.93.618 1.493 0 .564-.22 1.093-.618 1.493z" fill="#FF8A00"/></svg>